<?xml version="1.0" encoding="UTF-8"?>
<!DOCTYPE svg PUBLIC "-//W3C//DTD SVG 1.1//EN" "http://www.w3.org/Graphics/SVG/1.1/DTD/svg11.dtd">
<!-- Creator: CorelDRAW -->
<svg xmlns="http://www.w3.org/2000/svg" xml:space="preserve" width="210mm" height="297mm" version="1.1" shape-rendering="geometricPrecision" text-rendering="geometricPrecision" image-rendering="optimizeQuality" fill-rule="evenodd" clip-rule="evenodd"
viewBox="0 0 21000 29700"
 xmlns:xlink="http://www.w3.org/1999/xlink"
 xmlns:xodm="http://www.corel.com/coreldraw/odm/2003">
 <g id="Capa_x0020_1">
  <metadata id="CorelCorpID_0Corel-Layer"/>
  <polygon fill="#051265" fill-rule="nonzero" points="11525.29,4544.17 12045.44,4544.17 12045.44,2727.05 12764.89,2727.05 12764.89,2264.62 10805.83,2264.62 10805.83,2727.05 11525.29,2727.05 "/>
  <path fill="#051265" fill-rule="nonzero" d="M9523.03 4544.17c455.98,0 659.35,-117.23 902.55,-367.98l-331.01 -322.39c-185.78,162.82 -284.45,247.93 -554.65,247.93 -405.33,0 -714.32,-306.56 -714.32,-697.33l0 -6.52c0,-390.77 315.75,-690.81 714.32,-690.81 236.43,0 355.36,78.59 537.76,238.16l331.01 -367.99c-219.55,-208.41 -419.55,-312.62 -865.4,-312.62 -726.2,0 -1232.84,491.74 -1232.84,1139.78l0 6.51c0,654.54 516.77,1133.26 1212.58,1133.26z"/>
  <path fill="#0742F4" fill-rule="nonzero" d="M5748.98 4544.17l730.83 0 0 -1038.2c-0.1,-1.09 -0.16,-2.2 -0.16,-3.29 0,-46.63 89.12,-86.69 216.52,-104.16 6.75,-16.78 10.72,-37.22 10.72,-59.28 0,-21.28 -2.13,-41.06 -6.48,-57.49 -83.81,-23.61 -123.55,-70.16 -123.55,-123.74 0,-77.46 83.06,-140.24 262.35,-140.24 179.29,0 262.34,62.78 262.34,140.24 0,54.63 -41.31,101.95 -128.52,125.1 -4.12,16.16 -6.13,35.44 -6.13,56.13 0,21.78 3.87,41.97 10.46,58.63 130,17.08 221.4,57.59 221.4,104.81 0,1.44 -0.11,2.88 -0.28,4.32l0 1037.17 730.95 0 -881.59 -2279.55 -417.28 0 -881.58 2279.55z"/>
  <polygon fill="#051265" fill-rule="nonzero" points="3479.25,4544.17 3970.3,4544.17 4413.65,3769.17 4854.19,4544.17 5359.28,4544.17 4674.61,3384.9 5331.22,2264.63 4840.17,2264.63 4422.07,3010.41 4012.38,2264.63 3507.3,2264.63 4163.92,3391.42 "/>
  <polygon fill="#051265" fill-rule="nonzero" points="1626.21,4544.17 2999,4544.17 2999,4098.03 2105.37,4098.03 2105.37,3619.33 2891.46,3619.33 2891.46,3173.18 2105.37,3173.18 2105.37,2710.76 2999,2710.76 2999,2264.62 1626.21,2264.62 "/>
  <polygon fill="#051265" fill-rule="nonzero" points="12982.58,4544.17 13475,4544.17 14072.8,3017.77 14674.41,4544.17 15163.03,4544.17 14281.44,2264.62 13864.16,2264.62 "/>
  <rect fill="#0742F4" x="1626.21" y="5101.39" width="13536.82" height="120"/>
  <path fill="#051265" fill-rule="nonzero" d="M1798.16 6022.26c-33.79,0 -66.4,-5.24 -97.85,-15.71 -31.44,-10.47 -56.14,-24.04 -74.1,-40.71l23.74 -50.01c17.11,15.39 39.02,27.89 65.76,37.51 26.73,9.61 54.21,14.42 82.45,14.42 37.21,0 65.02,-6.3 83.41,-18.91 18.39,-12.61 27.59,-29.39 27.59,-50.33 0,-15.39 -5.03,-27.89 -15.08,-37.51 -10.05,-9.62 -22.45,-16.99 -37.21,-22.12 -14.76,-5.13 -35.61,-10.9 -62.56,-17.31 -33.79,-8.12 -61.06,-16.24 -81.81,-24.36 -20.74,-8.13 -38.5,-20.63 -53.25,-37.51 -14.76,-16.89 -22.13,-39.65 -22.13,-68.28 0,-23.94 6.3,-45.53 18.92,-64.76 12.62,-19.23 31.76,-34.62 57.42,-46.16 25.67,-11.54 57.53,-17.31 95.6,-17.31 26.53,0 52.62,3.42 78.29,10.25 25.66,6.84 47.68,16.67 66.08,29.5l-21.17 51.29c-18.82,-11.97 -38.93,-21.05 -60.31,-27.25 -21.39,-6.2 -42.35,-9.3 -62.89,-9.3 -36.35,0 -63.62,6.63 -81.8,19.88 -18.18,13.25 -27.27,30.35 -27.27,51.29 0,15.39 5.14,27.89 15.4,37.51 10.27,9.62 22.99,17.1 38.18,22.44 15.18,5.34 35.82,11.01 61.92,16.99 33.78,8.12 60.95,16.24 81.48,24.36 20.53,8.12 38.17,20.52 52.94,37.19 14.75,16.67 22.13,39.11 22.13,67.32 0,23.51 -6.41,44.99 -19.25,64.44 -12.83,19.44 -32.3,34.83 -58.39,46.16 -26.09,11.33 -58.17,16.99 -96.24,16.99z"/>
  <path id="_1" fill="#051265" fill-rule="nonzero" d="M2458.32 6022.26c-45.34,0 -86.19,-9.94 -122.55,-29.81 -36.36,-19.88 -64.91,-47.34 -85.66,-82.39 -20.74,-35.05 -31.11,-74.16 -31.11,-117.33 0,-43.17 10.37,-82.28 31.11,-117.33 20.75,-35.05 49.3,-62.52 85.66,-82.39 36.36,-19.88 77.21,-29.81 122.55,-29.81 44.91,0 85.55,9.93 121.91,29.81 36.35,19.87 64.8,47.23 85.34,82.07 20.52,34.83 30.79,74.05 30.79,117.65 0,43.6 -10.27,82.81 -30.79,117.65 -20.54,34.83 -48.99,62.19 -85.34,82.07 -36.36,19.87 -77,29.81 -121.91,29.81zm0 -57.06c32.94,0 62.56,-7.48 88.86,-22.44 26.31,-14.96 47.06,-35.59 62.24,-61.87 15.19,-26.29 22.78,-55.68 22.78,-88.16 0,-32.49 -7.59,-61.87 -22.78,-88.16 -15.18,-26.29 -35.93,-46.91 -62.24,-61.87 -26.3,-14.96 -55.92,-22.44 -88.86,-22.44 -32.94,0 -62.77,7.48 -89.51,22.44 -26.73,14.96 -47.69,35.58 -62.87,61.87 -15.19,26.29 -22.78,55.67 -22.78,88.16 0,32.48 7.59,61.87 22.78,88.16 15.18,26.28 36.14,46.91 62.87,61.87 26.74,14.96 56.57,22.44 89.51,22.44z"/>
  <polygon id="_2" fill="#051265" fill-rule="nonzero" points="2984.39,5568.32 3048.56,5568.32 3048.56,5961.35 3291.72,5961.35 3291.72,6017.13 2984.39,6017.13 "/>
  <path id="_3" fill="#051265" fill-rule="nonzero" d="M3733.74 6022.26c-59.89,0 -106.51,-17.1 -139.87,-51.29 -33.37,-34.2 -50.05,-83.35 -50.05,-147.47l0 -255.18 64.17 0 0 252.62c0,96.17 42.13,144.26 126.4,144.26 41.06,0 72.5,-11.86 94.31,-35.59 21.81,-23.72 32.72,-59.94 32.72,-108.67l0 -252.62 62.24 0 0 255.18c0,64.55 -16.69,113.81 -50.05,147.79 -33.35,33.98 -79.99,50.97 -139.87,50.97z"/>
  <path id="_4" fill="#051265" fill-rule="nonzero" d="M4445.88 6022.26c-44.92,0 -85.44,-9.94 -121.59,-29.81 -36.15,-19.88 -64.48,-47.24 -85.01,-82.07 -20.54,-34.84 -30.8,-74.05 -30.8,-117.65 0,-43.6 10.26,-82.82 30.8,-117.65 20.53,-34.84 48.97,-62.2 85.33,-82.07 36.37,-19.88 77,-29.81 121.91,-29.81 35.07,0 67.16,5.87 96.24,17.63 29.09,11.75 53.9,29.17 74.43,52.25l-41.71 40.39c-33.78,-35.47 -75.92,-53.21 -126.39,-53.21 -33.36,0 -63.53,7.48 -90.48,22.44 -26.94,14.96 -48.01,35.58 -63.19,61.87 -15.18,26.29 -22.78,55.67 -22.78,88.16 0,32.48 7.6,61.87 22.78,88.16 15.18,26.28 36.25,46.91 63.19,61.87 26.95,14.96 57.12,22.44 90.48,22.44 50.05,0 92.18,-17.96 126.39,-53.86l41.71 40.39c-20.53,23.08 -45.45,40.61 -74.75,52.58 -29.3,11.97 -61.49,17.95 -96.56,17.95z"/>
  <polygon id="_5" fill="#051265" fill-rule="nonzero" points="4898.8,5568.32 4962.97,5568.32 4962.97,6017.13 4898.8,6017.13 "/>
  <path id="_6" fill="#051265" fill-rule="nonzero" d="M5490.31 6022.26c-45.33,0 -86.18,-9.94 -122.55,-29.81 -36.36,-19.88 -64.91,-47.34 -85.65,-82.39 -20.75,-35.05 -31.11,-74.16 -31.11,-117.33 0,-43.17 10.36,-82.28 31.11,-117.33 20.74,-35.05 49.29,-62.52 85.65,-82.39 36.37,-19.88 77.22,-29.81 122.55,-29.81 44.91,0 85.55,9.93 121.91,29.81 36.36,19.87 64.81,47.23 85.34,82.07 20.53,34.83 30.79,74.05 30.79,117.65 0,43.6 -10.26,82.81 -30.79,117.65 -20.53,34.83 -48.98,62.19 -85.34,82.07 -36.36,19.87 -77,29.81 -121.91,29.81zm0 -57.06c32.94,0 62.57,-7.48 88.86,-22.44 26.31,-14.96 47.06,-35.59 62.24,-61.87 15.19,-26.29 22.79,-55.68 22.79,-88.16 0,-32.49 -7.6,-61.87 -22.79,-88.16 -15.18,-26.29 -35.93,-46.91 -62.24,-61.87 -26.29,-14.96 -55.92,-22.44 -88.86,-22.44 -32.93,0 -62.77,7.48 -89.51,22.44 -26.72,14.96 -47.69,35.58 -62.87,61.87 -15.18,26.29 -22.78,55.67 -22.78,88.16 0,32.48 7.6,61.87 22.78,88.16 15.18,26.28 36.15,46.91 62.87,61.87 26.74,14.96 56.58,22.44 89.51,22.44z"/>
  <polygon id="_7" fill="#051265" fill-rule="nonzero" points="6402.64,5568.32 6402.64,6017.13 6350.03,6017.13 6080.55,5682.45 6080.55,6017.13 6016.38,6017.13 6016.38,5568.32 6069,5568.32 6338.48,5903.01 6338.48,5568.32 "/>
  <polygon id="_8" fill="#051265" fill-rule="nonzero" points="7053.17,5961.35 7053.17,6017.13 6727.23,6017.13 6727.23,5568.32 7044.19,5568.32 7044.19,5624.11 6791.4,5624.11 6791.4,5761.95 7016.6,5761.95 7016.6,5816.45 6791.4,5816.45 6791.4,5961.35 "/>
  <path id="_9" fill="#051265" fill-rule="nonzero" d="M7477.87 6022.26c-33.79,0 -66.41,-5.24 -97.85,-15.71 -31.44,-10.47 -56.14,-24.04 -74.1,-40.71l23.73 -50.01c17.12,15.39 39.03,27.89 65.77,37.51 26.73,9.61 54.21,14.42 82.45,14.42 37.21,0 65.02,-6.3 83.4,-18.91 18.4,-12.61 27.59,-29.39 27.59,-50.33 0,-15.39 -5.02,-27.89 -15.07,-37.51 -10.06,-9.62 -22.46,-16.99 -37.22,-22.12 -14.76,-5.13 -35.6,-10.9 -62.55,-17.31 -33.8,-8.12 -61.07,-16.24 -81.81,-24.36 -20.75,-8.13 -38.5,-20.63 -53.25,-37.51 -14.76,-16.89 -22.14,-39.65 -22.14,-68.28 0,-23.94 6.31,-45.53 18.93,-64.76 12.62,-19.23 31.76,-34.62 57.42,-46.16 25.67,-11.54 57.53,-17.31 95.6,-17.31 26.53,0 52.62,3.42 78.29,10.25 25.65,6.84 47.68,16.67 66.07,29.5l-21.16 51.29c-18.82,-11.97 -38.93,-21.05 -60.32,-27.25 -21.38,-6.2 -42.35,-9.3 -62.88,-9.3 -36.36,0 -63.63,6.63 -81.8,19.88 -18.18,13.25 -27.27,30.35 -27.27,51.29 0,15.39 5.13,27.89 15.4,37.51 10.27,9.62 22.99,17.1 38.18,22.44 15.18,5.34 35.81,11.01 61.91,16.99 33.79,8.12 60.96,16.24 81.48,24.36 20.54,8.12 38.18,20.52 52.94,37.19 14.75,16.67 22.14,39.11 22.14,67.32 0,23.51 -6.42,44.99 -19.26,64.44 -12.83,19.44 -32.29,34.83 -58.38,46.16 -26.1,11.33 -58.17,16.99 -96.24,16.99z"/>
  <polygon id="_10" fill="#051265" fill-rule="nonzero" points="8297.73,5568.32 8361.9,5568.32 8361.9,6017.13 8297.73,6017.13 "/>
  <polygon id="_11" fill="#051265" fill-rule="nonzero" points="9072.75,5568.32 9072.75,6017.13 9020.14,6017.13 8750.66,5682.45 8750.66,6017.13 8686.49,6017.13 8686.49,5568.32 8739.11,5568.32 9008.59,5903.01 9008.59,5568.32 "/>
  <path id="_12" fill="#051265" fill-rule="nonzero" d="M9397.34 5568.32l189.28 0c47.49,0 89.62,9.41 126.4,28.22 36.79,18.8 65.34,45.2 85.66,79.18 20.31,33.98 30.47,72.98 30.47,117.01 0,44.02 -10.16,83.03 -30.47,117.01 -20.32,33.98 -48.87,60.37 -85.66,79.18 -36.78,18.81 -78.91,28.21 -126.4,28.21l-189.28 0 0 -448.81zm185.43 393.03c36.35,0 68.34,-7.05 95.93,-21.16 27.58,-14.1 48.86,-33.87 63.83,-59.3 14.98,-25.44 22.46,-54.82 22.46,-88.16 0,-33.34 -7.48,-62.73 -22.46,-88.16 -14.97,-25.43 -36.25,-45.2 -63.83,-59.31 -27.59,-14.1 -59.58,-21.15 -95.93,-21.15l-121.26 0 0 337.24 121.26 0z"/>
  <path id="_13" fill="#051265" fill-rule="nonzero" d="M10303.24 6022.26c-59.88,0 -106.5,-17.1 -139.87,-51.29 -33.36,-34.2 -50.04,-83.35 -50.04,-147.47l0 -255.18 64.16 0 0 252.62c0,96.17 42.13,144.26 126.4,144.26 41.06,0 72.51,-11.86 94.31,-35.59 21.82,-23.72 32.73,-59.94 32.73,-108.67l0 -252.62 62.23 0 0 255.18c0,64.55 -16.68,113.81 -50.04,147.79 -33.36,33.98 -79.99,50.97 -139.88,50.97z"/>
  <path id="_14" fill="#051265" fill-rule="nonzero" d="M10945.45 6022.26c-33.79,0 -66.41,-5.24 -97.85,-15.71 -31.44,-10.47 -56.14,-24.04 -74.1,-40.71l23.73 -50.01c17.12,15.39 39.03,27.89 65.77,37.51 26.73,9.61 54.21,14.42 82.45,14.42 37.21,0 65.02,-6.3 83.4,-18.91 18.4,-12.61 27.59,-29.39 27.59,-50.33 0,-15.39 -5.02,-27.89 -15.07,-37.51 -10.05,-9.62 -22.45,-16.99 -37.21,-22.12 -14.77,-5.13 -35.61,-10.9 -62.56,-17.31 -33.79,-8.12 -61.06,-16.24 -81.81,-24.36 -20.75,-8.13 -38.5,-20.63 -53.25,-37.51 -14.76,-16.89 -22.13,-39.65 -22.13,-68.28 0,-23.94 6.3,-45.53 18.92,-64.76 12.62,-19.23 31.76,-34.62 57.42,-46.16 25.67,-11.54 57.53,-17.31 95.6,-17.31 26.53,0 52.62,3.42 78.29,10.25 25.66,6.84 47.68,16.67 66.08,29.5l-21.17 51.29c-18.82,-11.97 -38.93,-21.05 -60.31,-27.25 -21.39,-6.2 -42.35,-9.3 -62.89,-9.3 -36.36,0 -63.63,6.63 -81.8,19.88 -18.18,13.25 -27.27,30.35 -27.27,51.29 0,15.39 5.13,27.89 15.4,37.51 10.27,9.62 22.99,17.1 38.18,22.44 15.18,5.34 35.82,11.01 61.92,16.99 33.78,8.12 60.95,16.24 81.47,24.36 20.54,8.12 38.18,20.52 52.94,37.19 14.75,16.67 22.14,39.11 22.14,67.32 0,23.51 -6.42,44.99 -19.25,64.44 -12.83,19.44 -32.3,34.83 -58.39,46.16 -26.1,11.33 -58.17,16.99 -96.24,16.99z"/>
  <polygon id="_15" fill="#051265" fill-rule="nonzero" points="11485.63,5624.11 11331.63,5624.11 11331.63,5568.32 11703.14,5568.32 11703.14,5624.11 11549.14,5624.11 11549.14,6017.13 11485.63,6017.13 "/>
  <path id="_16" fill="#051265" fill-rule="nonzero" d="M12263.21 6017.13l-96.88 -137.85c-11.97,0.86 -21.39,1.29 -28.24,1.29l-110.99 0 0 136.56 -64.16 0 0 -448.81 175.15 0c58.19,0 103.95,13.9 137.31,41.68 33.37,27.78 50.05,66.04 50.05,114.77 0,34.62 -8.56,64.11 -25.67,88.47 -17.1,24.37 -41.49,42.11 -73.14,53.22l106.51 150.67 -69.94 0zm-127.04 -191.06c40.64,0 71.65,-8.77 93.04,-26.29 21.39,-17.52 32.08,-42.53 32.08,-75.01 0,-32.49 -10.69,-57.39 -32.08,-74.7 -21.39,-17.31 -52.4,-25.96 -93.04,-25.96l-109.07 0 0 201.96 109.07 0z"/>
  <polygon id="_17" fill="#051265" fill-rule="nonzero" points="12619.25,5568.32 12683.42,5568.32 12683.42,6017.13 12619.25,6017.13 "/>
  <path id="_18" fill="#051265" fill-rule="nonzero" d="M13294.18 5904.93l-238.68 0 -49.4 112.2 -66.09 0 203.39 -448.81 63.52 0 204.03 448.81 -67.37 0 -49.4 -112.2zm-22.46 -51.29l-96.88 -219.92 -96.88 219.92 193.76 0z"/>
  <polygon id="_19" fill="#051265" fill-rule="nonzero" points="13667.54,5568.32 13731.71,5568.32 13731.71,5961.35 13974.87,5961.35 13974.87,6017.13 13667.54,6017.13 "/>
  <polygon id="_20" fill="#051265" fill-rule="nonzero" points="14564.45,5961.35 14564.45,6017.13 14238.52,6017.13 14238.52,5568.32 14555.48,5568.32 14555.48,5624.11 14302.68,5624.11 14302.68,5761.95 14527.89,5761.95 14527.89,5816.45 14302.68,5816.45 14302.68,5961.35 "/>
  <path id="_21" fill="#051265" fill-rule="nonzero" d="M14989.15 6022.26c-33.79,0 -66.4,-5.24 -97.85,-15.71 -31.44,-10.47 -56.14,-24.04 -74.1,-40.71l23.74 -50.01c17.11,15.39 39.03,27.89 65.76,37.51 26.73,9.61 54.21,14.42 82.45,14.42 37.21,0 65.02,-6.3 83.41,-18.91 18.39,-12.61 27.59,-29.39 27.59,-50.33 0,-15.39 -5.03,-27.89 -15.08,-37.51 -10.05,-9.62 -22.45,-16.99 -37.21,-22.12 -14.76,-5.13 -35.61,-10.9 -62.56,-17.31 -33.79,-8.12 -61.06,-16.24 -81.81,-24.36 -20.74,-8.13 -38.5,-20.63 -53.25,-37.51 -14.76,-16.89 -22.13,-39.65 -22.13,-68.28 0,-23.94 6.3,-45.53 18.92,-64.76 12.62,-19.23 31.76,-34.62 57.42,-46.16 25.67,-11.54 57.53,-17.31 95.6,-17.31 26.53,0 52.62,3.42 78.29,10.25 25.66,6.84 47.68,16.67 66.08,29.5l-21.17 51.29c-18.82,-11.97 -38.93,-21.05 -60.31,-27.25 -21.39,-6.2 -42.35,-9.3 -62.89,-9.3 -36.35,0 -63.62,6.63 -81.8,19.88 -18.18,13.25 -27.27,30.35 -27.27,51.29 0,15.39 5.14,27.89 15.4,37.51 10.27,9.62 22.99,17.1 38.18,22.44 15.18,5.34 35.82,11.01 61.92,16.99 33.78,8.12 60.95,16.24 81.48,24.36 20.53,8.12 38.17,20.52 52.94,37.19 14.75,16.67 22.13,39.11 22.13,67.32 0,23.51 -6.41,44.99 -19.25,64.44 -12.83,19.44 -32.3,34.83 -58.38,46.16 -26.1,11.33 -58.18,16.99 -96.25,16.99z"/>
  <path id="_22" fill="none" fill-rule="nonzero" stroke="#051265" stroke-width="25" stroke-miterlimit="22.9256" d="M1798.16 6022.26c-33.79,0 -66.4,-5.24 -97.85,-15.71 -31.44,-10.47 -56.14,-24.04 -74.1,-40.71l23.74 -50.01c17.11,15.39 39.02,27.89 65.76,37.51 26.73,9.61 54.21,14.42 82.45,14.42 37.21,0 65.02,-6.3 83.41,-18.91 18.39,-12.61 27.59,-29.39 27.59,-50.33 0,-15.39 -5.03,-27.89 -15.08,-37.51 -10.05,-9.62 -22.45,-16.99 -37.21,-22.12 -14.76,-5.13 -35.61,-10.9 -62.56,-17.31 -33.79,-8.12 -61.06,-16.24 -81.81,-24.36 -20.74,-8.13 -38.5,-20.63 -53.25,-37.51 -14.76,-16.89 -22.13,-39.65 -22.13,-68.28 0,-23.94 6.3,-45.53 18.92,-64.76 12.62,-19.23 31.76,-34.62 57.42,-46.16 25.67,-11.54 57.53,-17.31 95.6,-17.31 26.53,0 52.62,3.42 78.29,10.25 25.66,6.84 47.68,16.67 66.08,29.5l-21.17 51.29c-18.82,-11.97 -38.93,-21.05 -60.31,-27.25 -21.39,-6.2 -42.35,-9.3 -62.89,-9.3 -36.35,0 -63.62,6.63 -81.8,19.88 -18.18,13.25 -27.27,30.35 -27.27,51.29 0,15.39 5.14,27.89 15.4,37.51 10.27,9.62 22.99,17.1 38.18,22.44 15.18,5.34 35.82,11.01 61.92,16.99 33.78,8.12 60.95,16.24 81.48,24.36 20.53,8.12 38.17,20.52 52.94,37.19 14.75,16.67 22.13,39.11 22.13,67.32 0,23.51 -6.41,44.99 -19.25,64.44 -12.83,19.44 -32.3,34.83 -58.39,46.16 -26.09,11.33 -58.17,16.99 -96.24,16.99z"/>
  <path id="_23" fill="none" fill-rule="nonzero" stroke="#051265" stroke-width="25" stroke-miterlimit="22.9256" d="M2458.32 6022.26c-45.34,0 -86.19,-9.94 -122.55,-29.81 -36.36,-19.88 -64.91,-47.34 -85.66,-82.39 -20.74,-35.05 -31.11,-74.16 -31.11,-117.33 0,-43.17 10.37,-82.28 31.11,-117.33 20.75,-35.05 49.3,-62.52 85.66,-82.39 36.36,-19.88 77.21,-29.81 122.55,-29.81 44.91,0 85.55,9.93 121.91,29.81 36.35,19.87 64.8,47.23 85.34,82.07 20.52,34.83 30.79,74.05 30.79,117.65 0,43.6 -10.27,82.81 -30.79,117.65 -20.54,34.83 -48.99,62.19 -85.34,82.07 -36.36,19.87 -77,29.81 -121.91,29.81zm0 -57.06c32.94,0 62.56,-7.48 88.86,-22.44 26.31,-14.96 47.06,-35.59 62.24,-61.87 15.19,-26.29 22.78,-55.68 22.78,-88.16 0,-32.49 -7.59,-61.87 -22.78,-88.16 -15.18,-26.29 -35.93,-46.91 -62.24,-61.87 -26.3,-14.96 -55.92,-22.44 -88.86,-22.44 -32.94,0 -62.77,7.48 -89.51,22.44 -26.73,14.96 -47.69,35.58 -62.87,61.87 -15.19,26.29 -22.78,55.67 -22.78,88.16 0,32.48 7.59,61.87 22.78,88.16 15.18,26.28 36.14,46.91 62.87,61.87 26.74,14.96 56.57,22.44 89.51,22.44z"/>
  <polygon id="_24" fill="none" fill-rule="nonzero" stroke="#051265" stroke-width="25" stroke-miterlimit="22.9256" points="2984.39,5568.32 3048.56,5568.32 3048.56,5961.35 3291.72,5961.35 3291.72,6017.13 2984.39,6017.13 "/>
  <path id="_25" fill="none" fill-rule="nonzero" stroke="#051265" stroke-width="25" stroke-miterlimit="22.9256" d="M3733.74 6022.26c-59.89,0 -106.51,-17.1 -139.87,-51.29 -33.37,-34.2 -50.05,-83.35 -50.05,-147.47l0 -255.18 64.17 0 0 252.62c0,96.17 42.13,144.26 126.4,144.26 41.06,0 72.5,-11.86 94.31,-35.59 21.81,-23.72 32.72,-59.94 32.72,-108.67l0 -252.62 62.24 0 0 255.18c0,64.55 -16.69,113.81 -50.05,147.79 -33.35,33.98 -79.99,50.97 -139.87,50.97z"/>
  <path id="_26" fill="none" fill-rule="nonzero" stroke="#051265" stroke-width="25" stroke-miterlimit="22.9256" d="M4445.88 6022.26c-44.92,0 -85.44,-9.94 -121.59,-29.81 -36.15,-19.88 -64.48,-47.24 -85.01,-82.07 -20.54,-34.84 -30.8,-74.05 -30.8,-117.65 0,-43.6 10.26,-82.82 30.8,-117.65 20.53,-34.84 48.97,-62.2 85.33,-82.07 36.37,-19.88 77,-29.81 121.91,-29.81 35.07,0 67.16,5.87 96.24,17.63 29.09,11.75 53.9,29.17 74.43,52.25l-41.71 40.39c-33.78,-35.47 -75.92,-53.21 -126.39,-53.21 -33.36,0 -63.53,7.48 -90.48,22.44 -26.94,14.96 -48.01,35.58 -63.19,61.87 -15.18,26.29 -22.78,55.67 -22.78,88.16 0,32.48 7.6,61.87 22.78,88.16 15.18,26.28 36.25,46.91 63.19,61.87 26.95,14.96 57.12,22.44 90.48,22.44 50.05,0 92.18,-17.96 126.39,-53.86l41.71 40.39c-20.53,23.08 -45.45,40.61 -74.75,52.58 -29.3,11.97 -61.49,17.95 -96.56,17.95z"/>
  <polygon id="_27" fill="none" fill-rule="nonzero" stroke="#051265" stroke-width="25" stroke-miterlimit="22.9256" points="4898.8,5568.32 4962.97,5568.32 4962.97,6017.13 4898.8,6017.13 "/>
  <path id="_28" fill="none" fill-rule="nonzero" stroke="#051265" stroke-width="25" stroke-miterlimit="22.9256" d="M5490.31 6022.26c-45.33,0 -86.18,-9.94 -122.55,-29.81 -36.36,-19.88 -64.91,-47.34 -85.65,-82.39 -20.75,-35.05 -31.11,-74.16 -31.11,-117.33 0,-43.17 10.36,-82.28 31.11,-117.33 20.74,-35.05 49.29,-62.52 85.65,-82.39 36.37,-19.88 77.22,-29.81 122.55,-29.81 44.91,0 85.55,9.93 121.91,29.81 36.36,19.87 64.81,47.23 85.34,82.07 20.53,34.83 30.79,74.05 30.79,117.65 0,43.6 -10.26,82.81 -30.79,117.65 -20.53,34.83 -48.98,62.19 -85.34,82.07 -36.36,19.87 -77,29.81 -121.91,29.81zm0 -57.06c32.94,0 62.57,-7.48 88.86,-22.44 26.31,-14.96 47.06,-35.59 62.24,-61.87 15.19,-26.29 22.79,-55.68 22.79,-88.16 0,-32.49 -7.6,-61.87 -22.79,-88.16 -15.18,-26.29 -35.93,-46.91 -62.24,-61.87 -26.29,-14.96 -55.92,-22.44 -88.86,-22.44 -32.93,0 -62.77,7.48 -89.51,22.44 -26.72,14.96 -47.69,35.58 -62.87,61.87 -15.18,26.29 -22.78,55.67 -22.78,88.16 0,32.48 7.6,61.87 22.78,88.16 15.18,26.28 36.15,46.91 62.87,61.87 26.74,14.96 56.58,22.44 89.51,22.44z"/>
  <polygon id="_29" fill="none" fill-rule="nonzero" stroke="#051265" stroke-width="25" stroke-miterlimit="22.9256" points="6402.64,5568.32 6402.64,6017.13 6350.03,6017.13 6080.55,5682.45 6080.55,6017.13 6016.38,6017.13 6016.38,5568.32 6069,5568.32 6338.48,5903.01 6338.48,5568.32 "/>
  <polygon id="_30" fill="none" fill-rule="nonzero" stroke="#051265" stroke-width="25" stroke-miterlimit="22.9256" points="7053.17,5961.35 7053.17,6017.13 6727.23,6017.13 6727.23,5568.32 7044.19,5568.32 7044.19,5624.11 6791.4,5624.11 6791.4,5761.95 7016.6,5761.95 7016.6,5816.45 6791.4,5816.45 6791.4,5961.35 "/>
  <path id="_31" fill="none" fill-rule="nonzero" stroke="#051265" stroke-width="25" stroke-miterlimit="22.9256" d="M7477.87 6022.26c-33.79,0 -66.41,-5.24 -97.85,-15.71 -31.44,-10.47 -56.14,-24.04 -74.1,-40.71l23.73 -50.01c17.12,15.39 39.03,27.89 65.77,37.51 26.73,9.61 54.21,14.42 82.45,14.42 37.21,0 65.02,-6.3 83.4,-18.91 18.4,-12.61 27.59,-29.39 27.59,-50.33 0,-15.39 -5.02,-27.89 -15.07,-37.51 -10.06,-9.62 -22.46,-16.99 -37.22,-22.12 -14.76,-5.13 -35.6,-10.9 -62.55,-17.31 -33.8,-8.12 -61.07,-16.24 -81.81,-24.36 -20.75,-8.13 -38.5,-20.63 -53.25,-37.51 -14.76,-16.89 -22.14,-39.65 -22.14,-68.28 0,-23.94 6.31,-45.53 18.93,-64.76 12.62,-19.23 31.76,-34.62 57.42,-46.16 25.67,-11.54 57.53,-17.31 95.6,-17.31 26.53,0 52.62,3.42 78.29,10.25 25.65,6.84 47.68,16.67 66.07,29.5l-21.16 51.29c-18.82,-11.97 -38.93,-21.05 -60.32,-27.25 -21.38,-6.2 -42.35,-9.3 -62.88,-9.3 -36.36,0 -63.63,6.63 -81.8,19.88 -18.18,13.25 -27.27,30.35 -27.27,51.29 0,15.39 5.13,27.89 15.4,37.51 10.27,9.62 22.99,17.1 38.18,22.44 15.18,5.34 35.81,11.01 61.91,16.99 33.79,8.12 60.96,16.24 81.48,24.36 20.54,8.12 38.18,20.52 52.94,37.19 14.75,16.67 22.14,39.11 22.14,67.32 0,23.51 -6.42,44.99 -19.26,64.44 -12.83,19.44 -32.29,34.83 -58.38,46.16 -26.1,11.33 -58.17,16.99 -96.24,16.99z"/>
  <polygon id="_32" fill="none" fill-rule="nonzero" stroke="#051265" stroke-width="25" stroke-miterlimit="22.9256" points="8297.73,5568.32 8361.9,5568.32 8361.9,6017.13 8297.73,6017.13 "/>
  <polygon id="_33" fill="none" fill-rule="nonzero" stroke="#051265" stroke-width="25" stroke-miterlimit="22.9256" points="9072.75,5568.32 9072.75,6017.13 9020.14,6017.13 8750.66,5682.45 8750.66,6017.13 8686.49,6017.13 8686.49,5568.32 8739.11,5568.32 9008.59,5903.01 9008.59,5568.32 "/>
  <path id="_34" fill="none" fill-rule="nonzero" stroke="#051265" stroke-width="25" stroke-miterlimit="22.9256" d="M9397.34 5568.32l189.28 0c47.49,0 89.62,9.41 126.4,28.22 36.79,18.8 65.34,45.2 85.66,79.18 20.31,33.98 30.47,72.98 30.47,117.01 0,44.02 -10.16,83.03 -30.47,117.01 -20.32,33.98 -48.87,60.37 -85.66,79.18 -36.78,18.81 -78.91,28.21 -126.4,28.21l-189.28 0 0 -448.81zm185.43 393.03c36.35,0 68.34,-7.05 95.93,-21.16 27.58,-14.1 48.86,-33.87 63.83,-59.3 14.98,-25.44 22.46,-54.82 22.46,-88.16 0,-33.34 -7.48,-62.73 -22.46,-88.16 -14.97,-25.43 -36.25,-45.2 -63.83,-59.31 -27.59,-14.1 -59.58,-21.15 -95.93,-21.15l-121.26 0 0 337.24 121.26 0z"/>
  <path id="_35" fill="none" fill-rule="nonzero" stroke="#051265" stroke-width="25" stroke-miterlimit="22.9256" d="M10303.24 6022.26c-59.88,0 -106.5,-17.1 -139.87,-51.29 -33.36,-34.2 -50.04,-83.35 -50.04,-147.47l0 -255.18 64.16 0 0 252.62c0,96.17 42.13,144.26 126.4,144.26 41.06,0 72.51,-11.86 94.31,-35.59 21.82,-23.72 32.73,-59.94 32.73,-108.67l0 -252.62 62.23 0 0 255.18c0,64.55 -16.68,113.81 -50.04,147.79 -33.36,33.98 -79.99,50.97 -139.88,50.97z"/>
  <path id="_36" fill="none" fill-rule="nonzero" stroke="#051265" stroke-width="25" stroke-miterlimit="22.9256" d="M10945.45 6022.26c-33.79,0 -66.41,-5.24 -97.85,-15.71 -31.44,-10.47 -56.14,-24.04 -74.1,-40.71l23.73 -50.01c17.12,15.39 39.03,27.89 65.77,37.51 26.73,9.61 54.21,14.42 82.45,14.42 37.21,0 65.02,-6.3 83.4,-18.91 18.4,-12.61 27.59,-29.39 27.59,-50.33 0,-15.39 -5.02,-27.89 -15.07,-37.51 -10.05,-9.62 -22.45,-16.99 -37.21,-22.12 -14.77,-5.13 -35.61,-10.9 -62.56,-17.31 -33.79,-8.12 -61.06,-16.24 -81.81,-24.36 -20.75,-8.13 -38.5,-20.63 -53.25,-37.51 -14.76,-16.89 -22.13,-39.65 -22.13,-68.28 0,-23.94 6.3,-45.53 18.92,-64.76 12.62,-19.23 31.76,-34.62 57.42,-46.16 25.67,-11.54 57.53,-17.31 95.6,-17.31 26.53,0 52.62,3.42 78.29,10.25 25.66,6.84 47.68,16.67 66.08,29.5l-21.17 51.29c-18.82,-11.97 -38.93,-21.05 -60.31,-27.25 -21.39,-6.2 -42.35,-9.3 -62.89,-9.3 -36.36,0 -63.63,6.63 -81.8,19.88 -18.18,13.25 -27.27,30.35 -27.27,51.29 0,15.39 5.13,27.89 15.4,37.51 10.27,9.62 22.99,17.1 38.18,22.44 15.18,5.34 35.82,11.01 61.92,16.99 33.78,8.12 60.95,16.24 81.47,24.36 20.54,8.12 38.18,20.52 52.94,37.19 14.75,16.67 22.14,39.11 22.14,67.32 0,23.51 -6.42,44.99 -19.25,64.44 -12.83,19.44 -32.3,34.83 -58.39,46.16 -26.1,11.33 -58.17,16.99 -96.24,16.99z"/>
  <polygon id="_37" fill="none" fill-rule="nonzero" stroke="#051265" stroke-width="25" stroke-miterlimit="22.9256" points="11485.63,5624.11 11331.63,5624.11 11331.63,5568.32 11703.14,5568.32 11703.14,5624.11 11549.14,5624.11 11549.14,6017.13 11485.63,6017.13 "/>
  <path id="_38" fill="none" fill-rule="nonzero" stroke="#051265" stroke-width="25" stroke-miterlimit="22.9256" d="M12263.21 6017.13l-96.88 -137.85c-11.97,0.86 -21.39,1.29 -28.24,1.29l-110.99 0 0 136.56 -64.16 0 0 -448.81 175.15 0c58.19,0 103.95,13.9 137.31,41.68 33.37,27.78 50.05,66.04 50.05,114.77 0,34.62 -8.56,64.11 -25.67,88.47 -17.1,24.37 -41.49,42.11 -73.14,53.22l106.51 150.67 -69.94 0zm-127.04 -191.06c40.64,0 71.65,-8.77 93.04,-26.29 21.39,-17.52 32.08,-42.53 32.08,-75.01 0,-32.49 -10.69,-57.39 -32.08,-74.7 -21.39,-17.31 -52.4,-25.96 -93.04,-25.96l-109.07 0 0 201.96 109.07 0z"/>
  <polygon id="_39" fill="none" fill-rule="nonzero" stroke="#051265" stroke-width="25" stroke-miterlimit="22.9256" points="12619.25,5568.32 12683.42,5568.32 12683.42,6017.13 12619.25,6017.13 "/>
  <path id="_40" fill="none" fill-rule="nonzero" stroke="#051265" stroke-width="25" stroke-miterlimit="22.9256" d="M13294.18 5904.93l-238.68 0 -49.4 112.2 -66.09 0 203.39 -448.81 63.52 0 204.03 448.81 -67.37 0 -49.4 -112.2zm-22.46 -51.29l-96.88 -219.92 -96.88 219.92 193.76 0z"/>
  <polygon id="_41" fill="none" fill-rule="nonzero" stroke="#051265" stroke-width="25" stroke-miterlimit="22.9256" points="13667.54,5568.32 13731.71,5568.32 13731.71,5961.35 13974.87,5961.35 13974.87,6017.13 13667.54,6017.13 "/>
  <polygon id="_42" fill="none" fill-rule="nonzero" stroke="#051265" stroke-width="25" stroke-miterlimit="22.9256" points="14564.45,5961.35 14564.45,6017.13 14238.52,6017.13 14238.52,5568.32 14555.48,5568.32 14555.48,5624.11 14302.68,5624.11 14302.68,5761.95 14527.89,5761.95 14527.89,5816.45 14302.68,5816.45 14302.68,5961.35 "/>
  <path id="_43" fill="none" fill-rule="nonzero" stroke="#051265" stroke-width="25" stroke-miterlimit="22.9256" d="M14989.15 6022.26c-33.79,0 -66.4,-5.24 -97.85,-15.71 -31.44,-10.47 -56.14,-24.04 -74.1,-40.71l23.74 -50.01c17.11,15.39 39.03,27.89 65.76,37.51 26.73,9.61 54.21,14.42 82.45,14.42 37.21,0 65.02,-6.3 83.41,-18.91 18.39,-12.61 27.59,-29.39 27.59,-50.33 0,-15.39 -5.03,-27.89 -15.08,-37.51 -10.05,-9.62 -22.45,-16.99 -37.21,-22.12 -14.76,-5.13 -35.61,-10.9 -62.56,-17.31 -33.79,-8.12 -61.06,-16.24 -81.81,-24.36 -20.74,-8.13 -38.5,-20.63 -53.25,-37.51 -14.76,-16.89 -22.13,-39.65 -22.13,-68.28 0,-23.94 6.3,-45.53 18.92,-64.76 12.62,-19.23 31.76,-34.62 57.42,-46.16 25.67,-11.54 57.53,-17.31 95.6,-17.31 26.53,0 52.62,3.42 78.29,10.25 25.66,6.84 47.68,16.67 66.08,29.5l-21.17 51.29c-18.82,-11.97 -38.93,-21.05 -60.31,-27.25 -21.39,-6.2 -42.35,-9.3 -62.89,-9.3 -36.35,0 -63.62,6.63 -81.8,19.88 -18.18,13.25 -27.27,30.35 -27.27,51.29 0,15.39 5.14,27.89 15.4,37.51 10.27,9.62 22.99,17.1 38.18,22.44 15.18,5.34 35.82,11.01 61.92,16.99 33.78,8.12 60.95,16.24 81.48,24.36 20.53,8.12 38.17,20.52 52.94,37.19 14.75,16.67 22.13,39.11 22.13,67.32 0,23.51 -6.41,44.99 -19.25,64.44 -12.83,19.44 -32.3,34.83 -58.38,46.16 -26.1,11.33 -58.18,16.99 -96.25,16.99z"/>
 </g>
</svg>
